<svg t="1595581354052" class="icon" viewBox="0 0 1024 1024" version="1.1" xmlns="http://www.w3.org/2000/svg" p-id="7788" width="64" height="64"><path d="M963.855787 265.813333c11.52 11.52 17.493333 25.173333 17.493333 41.386667 0 15.786667-5.973333 29.44-17.493333 40.533333l-163.413334 163.84c-11.52 11.52-25.173333 17.493333-40.96 17.493334-15.36 0-29.013333-5.973333-40.96-17.493334l-163.413333-163.84c-10.666667-11.52-16.213333-24.746667-16.213333-40.533333s5.546667-29.44 16.64-41.386667L718.94912 101.973333c11.52-11.093333 25.173333-16.64 40.533333-16.64s29.013333 5.546667 40.96 16.64l163.413334 163.84z m-122.026667 343.04c15.36 0 28.16 5.12 38.826667 15.786667s15.786667 23.466667 15.786666 38.826667v221.013333c0 15.36-5.12 28.16-15.786666 38.826667-10.666667 10.24-23.466667 15.36-38.826667 15.36h-219.306667c-15.36 0-28.16-5.12-39.253333-15.786667-10.666667-10.666667-16.213333-23.466667-16.213333-38.826667v-221.013333c0-15.36 5.546667-28.16 16.213333-38.826667s23.893333-15.786667 39.253333-15.786666h219.306667z m-439.893333 0c15.36 0 28.16 5.12 39.253333 15.786667 10.666667 10.666667 16.213333 23.466667 16.213333 38.826667v221.013333c0 15.36-5.546667 28.16-16.213333 38.826667s-23.893333 15.36-39.253333 15.36H182.62912c-15.36 0-28.16-5.12-38.826667-15.786667a52.48 52.48 0 0 1-15.786666-38.826667v-221.013333c0-15.36 5.12-28.16 15.786666-38.826667s23.466667-15.786667 38.826667-15.786666h219.306667z m0-439.893333c15.36 0 28.16 5.12 39.253333 15.786667 10.666667 10.666667 16.213333 23.466667 16.213333 38.826666v219.733334c0 15.36-5.546667 28.16-16.213333 39.253333-11.093333 10.666667-23.893333 16.213333-39.253333 16.213333H182.62912c-15.36 0-28.16-5.546667-38.826667-16.213333S128.015787 458.666667 128.015787 443.306667V223.573333c0-15.36 5.12-28.16 15.786666-38.826666s23.466667-15.786667 38.826667-15.786667h219.306667z" p-id="7789" fill="#ffffff"></path></svg>